<svg width="11" height="14" viewBox="0 0 11 14" fill="none" xmlns="http://www.w3.org/2000/svg">
<path d="M5.14049 0.437978L5.20297 0.442838C5.32087 0.469363 5.39494 0.586442 5.36842 0.70434L5.33477 0.831076C5.31065 0.908268 5.28305 0.970846 5.25199 1.01881C3.60013 3.56932 4.32561 5.10241 5.43948 5.26716C6.59156 5.43756 7.43433 4.66571 7.254 2.99974C7.22294 2.71278 7.19698 2.47096 7.17611 2.27427C7.17119 2.22796 7.18251 2.18137 7.20814 2.14248C7.26921 2.04978 7.39387 2.02414 7.48657 2.08521L7.63058 2.18699C7.97437 2.44706 8.37456 2.86182 8.83117 3.43128C10.5503 5.57528 10.7399 7.39573 10.7503 8.3154L10.75 8.51853C10.7125 11.5072 8.5 13.5626 5.5 13.5626C2.5 13.5626 0.25 11.5076 0.25 8.51853C0.263288 6.25557 1.40645 3.07017 4.56238 0.818339C4.68026 0.73423 4.83434 0.621632 5.02462 0.480547C5.07575 0.442631 5.14086 0.428865 5.20297 0.442838L5.14049 0.437978ZM7.6919 6.12946L4.625 9.19636L3.3081 7.87946C3.06891 7.64027 2.68109 7.64027 2.4419 7.87946C2.2027 8.11866 2.2027 8.50647 2.4419 8.74567L4.1919 10.4957C4.43109 10.7349 4.81891 10.7349 5.0581 10.4957L8.5581 6.99567C8.7973 6.75647 8.7973 6.36866 8.5581 6.12946C8.31891 5.89027 7.93109 5.89027 7.6919 6.12946Z" fill="white"/>
</svg>
