<svg width="86" height="86" viewBox="0 0 86 86" fill="none" xmlns="http://www.w3.org/2000/svg">
<g clip-path="url(#clip0)">
<rect x="-17" y="-17" width="120" height="120" rx="60" fill="#5A9EFF"/>
<path d="M43.0675 25.0833C51.9272 25.0833 59.4279 31.5065 60.8324 40.2042C61.6637 46.9862 56.2182 51.7419 50.548 51.7419L49.0343 51.7429C47.5096 51.754 46.914 51.811 46.5125 51.9638C46.3037 52.0434 45.9236 52.3568 46.283 52.9637L46.813 53.8789C47.1083 54.423 47.3741 55.0183 47.64 55.7631C48.5051 58.1857 46.309 60.9166 43.0675 60.9166C33.5107 60.9166 25.0835 52.7178 25.0835 42.9999C25.0835 33.1048 33.1352 25.0833 43.0675 25.0833ZM43.0675 28.9225C35.2636 28.9225 28.9372 35.2252 28.9372 42.9999C28.9372 50.5768 35.6189 57.0773 43.0675 57.0773C43.7597 57.0773 43.7263 56.5937 43.4928 56.0085C43.3372 55.6183 43.1364 55.2104 42.8904 54.7848C42.5828 54.2161 42.4024 53.6672 42.3122 52.9539C42.065 50.999 43.317 49.0705 45.1366 48.3776C45.9296 48.0757 46.6082 47.9597 47.9431 47.92L48.9387 47.9035L50.548 47.9026C54.101 47.9026 57.5269 44.9106 57.0174 40.7421C55.9228 33.9706 50.0281 28.9225 43.0675 28.9225V28.9225ZM33.5959 39.5872C35.0148 39.5872 36.1651 40.7332 36.1651 42.1467C36.1651 43.5603 35.0148 44.7063 33.5959 44.7063C32.177 44.7063 31.0268 43.5603 31.0268 42.1467C31.0268 40.7332 32.177 39.5872 33.5959 39.5872ZM52.4364 39.5872C53.8553 39.5872 55.0055 40.7332 55.0055 42.1467C55.0055 43.5603 53.8553 44.7063 52.4364 44.7063C51.0175 44.7063 49.8672 43.5603 49.8672 42.1467C49.8672 40.7332 51.0175 39.5872 52.4364 39.5872ZM38.7342 32.7618C40.1532 32.7618 41.3034 33.9078 41.3034 35.3213C41.3034 36.7349 40.1532 37.8809 38.7342 37.8809C37.3153 37.8809 36.1651 36.7349 36.1651 35.3213C36.1651 33.9078 37.3153 32.7618 38.7342 32.7618V32.7618ZM47.2981 32.7618C48.717 32.7618 49.8672 33.9078 49.8672 35.3213C49.8672 36.7349 48.717 37.8809 47.2981 37.8809C45.8792 37.8809 44.7289 36.7349 44.7289 35.3213C44.7289 33.9078 45.8792 32.7618 47.2981 32.7618V32.7618Z" fill="white"/>
</g>
<defs>
<clipPath id="clip0">
<rect width="86" height="86" rx="43" fill="white"/>
</clipPath>
</defs>
</svg>
