<svg width="139" height="19" viewBox="0 0 139 19" fill="none" xmlns="http://www.w3.org/2000/svg">
<path d="M3.81406 3.53906V9.31641H7.22422C8.18516 9.31641 8.93125 9.0625 9.4625 8.55469C9.99375 8.04688 10.2594 7.33594 10.2594 6.42188C10.2594 5.53125 9.98203 4.82812 9.42735 4.3125C8.87266 3.79688 8.11875 3.53906 7.16563 3.53906H3.81406ZM3.81406 11.6367V18H0.790627V1.08984H7.50547C9.32578 1.08984 10.7555 1.5625 11.7945 2.50781C12.8336 3.44531 13.3531 4.72656 13.3531 6.35156C13.3531 7.48438 13.0719 8.48438 12.5094 9.35156C11.9469 10.2109 11.1656 10.8203 10.1656 11.1797L13.857 18H10.4117L7.0836 11.6367H3.81406ZM22.4141 18H19.3906V1.08984H22.4141V18ZM28.2992 13.2422H31.2289C31.3227 14.0156 31.7211 14.6406 32.4242 15.1172C33.1273 15.5859 33.9984 15.8203 35.0375 15.8203C36.0531 15.8203 36.8813 15.5938 37.5219 15.1406C38.1703 14.6875 38.4945 14.1094 38.4945 13.4062C38.4945 12.7969 38.2602 12.3047 37.7914 11.9297C37.3227 11.5469 36.557 11.2305 35.4945 10.9805L33.3031 10.4648C31.7484 10.1055 30.5922 9.54688 29.8344 8.78906C29.0844 8.03125 28.7094 7.04688 28.7094 5.83594C28.7094 4.34375 29.2953 3.13281 30.4672 2.20312C31.6391 1.27344 33.1508 0.808594 35.0023 0.808594C36.8617 0.808594 38.3578 1.26953 39.4906 2.19141C40.6313 3.10547 41.2211 4.30859 41.2602 5.80078H38.3773C38.307 5.01172 37.9672 4.39453 37.3578 3.94922C36.7484 3.49609 35.9555 3.26953 34.9789 3.26953C34.0258 3.26953 33.2523 3.48438 32.6586 3.91406C32.0727 4.34375 31.7797 4.91016 31.7797 5.61328C31.7797 6.17578 32.0063 6.63281 32.4594 6.98438C32.9203 7.33594 33.6703 7.63672 34.7094 7.88672L36.6547 8.33203C38.3656 8.72266 39.6078 9.29297 40.3813 10.043C41.1547 10.793 41.5414 11.7969 41.5414 13.0547C41.5414 14.6562 40.9398 15.9297 39.7367 16.875C38.5414 17.8125 36.9203 18.2812 34.8734 18.2812C32.9203 18.2812 31.35 17.832 30.1625 16.9336C28.9828 16.0273 28.3617 14.7969 28.2992 13.2422ZM54.8797 0.808594C57.3406 0.808594 59.2898 1.59375 60.7273 3.16406C62.1727 4.73438 62.8953 6.86328 62.8953 9.55078C62.8953 12.2383 62.1727 14.3672 60.7273 15.9375C59.2898 17.5 57.3406 18.2812 54.8797 18.2812C52.4109 18.2812 50.4539 17.5 49.0086 15.9375C47.5711 14.3672 46.8523 12.2383 46.8523 9.55078C46.8523 6.86328 47.5711 4.73438 49.0086 3.16406C50.4539 1.59375 52.4109 0.808594 54.8797 0.808594ZM58.4773 5.0625C57.5867 3.94531 56.3875 3.38672 54.8797 3.38672C53.3719 3.38672 52.1727 3.94141 51.282 5.05078C50.3914 6.16016 49.9461 7.66016 49.9461 9.55078C49.9461 11.4336 50.3914 12.9297 51.282 14.0391C52.1727 15.1484 53.3719 15.7031 54.8797 15.7031C56.3875 15.7031 57.5867 15.1484 58.4773 14.0391C59.368 12.9297 59.8133 11.4336 59.8133 9.55078C59.8133 7.66797 59.368 6.17188 58.4773 5.0625ZM76.5031 18H73.0344L67.1516 1.08984H70.4797L74.7688 14.7539H74.8391L79.1281 1.08984H82.3859L76.5031 18ZM97.1305 18L95.6891 13.6289H89.4664L88.025 18H84.9078L90.9078 1.08984H94.318L100.318 18H97.1305ZM92.5367 4.07812L90.1695 11.2969H94.9742L92.6188 4.07812H92.5367ZM104.809 13.2422H107.738C107.832 14.0156 108.23 14.6406 108.934 15.1172C109.637 15.5859 110.508 15.8203 111.547 15.8203C112.562 15.8203 113.391 15.5938 114.031 15.1406C114.68 14.6875 115.004 14.1094 115.004 13.4062C115.004 12.7969 114.77 12.3047 114.301 11.9297C113.832 11.5469 113.066 11.2305 112.004 10.9805L109.812 10.4648C108.258 10.1055 107.102 9.54688 106.344 8.78906C105.594 8.03125 105.219 7.04688 105.219 5.83594C105.219 4.34375 105.805 3.13281 106.977 2.20312C108.148 1.27344 109.66 0.808594 111.512 0.808594C113.371 0.808594 114.867 1.26953 116 2.19141C117.141 3.10547 117.73 4.30859 117.77 5.80078H114.887C114.816 5.01172 114.477 4.39453 113.867 3.94922C113.258 3.49609 112.465 3.26953 111.488 3.26953C110.535 3.26953 109.762 3.48438 109.168 3.91406C108.582 4.34375 108.289 4.91016 108.289 5.61328C108.289 6.17578 108.516 6.63281 108.969 6.98438C109.43 7.33594 110.18 7.63672 111.219 7.88672L113.164 8.33203C114.875 8.72266 116.117 9.29297 116.891 10.043C117.664 10.793 118.051 11.7969 118.051 13.0547C118.051 14.6562 117.449 15.9297 116.246 16.875C115.051 17.8125 113.43 18.2812 111.383 18.2812C109.43 18.2812 107.859 17.832 106.672 16.9336C105.492 16.0273 104.871 14.7969 104.809 13.2422ZM138.198 18H135.186V10.6641H126.959V18H123.936V1.08984H126.959V8.12109H135.186V1.08984H138.198V18Z" fill="#232324"/>
</svg>
