<svg width="42" height="46" viewBox="0 0 42 46" fill="none" xmlns="http://www.w3.org/2000/svg">
<path d="M28.576 12.1534C28.576 8.03741 25.1862 4.70455 21 4.70455C16.8138 4.70455 13.4241 8.03741 13.4241 12.1534C13.4241 16.2694 16.8138 19.6023 21 19.6023C25.1862 19.6023 28.576 16.2694 28.576 12.1534ZM33.3608 12.1534C33.3608 18.8677 27.8288 24.3068 21 24.3068C14.1712 24.3068 8.63924 18.8677 8.63924 12.1534C8.63924 5.43916 14.1712 0 21 0C27.8288 0 33.3608 5.43916 33.3608 12.1534ZM4.78481 39.5406C4.78481 41.5501 4.54353 41.2955 5.6761 41.2955H36.3239C37.4565 41.2955 37.2152 41.5501 37.2152 39.5406C37.2152 34.594 29.8301 31.625 21 31.625C12.1699 31.625 4.78481 34.594 4.78481 39.5406ZM0 39.5406C0 30.8455 9.76311 26.9204 21 26.9204C32.2369 26.9204 42 30.8455 42 39.5406C42 44.0768 40.1777 46 36.3239 46H5.6761C1.82232 46 0 44.0768 0 39.5406Z" fill="#3F8AE0"/>
</svg>
